<svg width="16px" viewBox="0 0 33 33">
  <path d="M31.3339041,8.9375 L23.8909532,8.9375 L23.8909532,1.5125 C23.8909532,0.6875 23.2477353,0 22.4207407,0 L10.4752641,0 C9.64826958,0 8.95910747,0.6875 8.95910747,1.5125 L8.95910747,8.9375 L1.51615665,8.9375 C0.689162113,8.9375 0,9.625 0,10.45 L0,22.3666667 C0,23.1916667 0.689162113,23.8333333 1.51615665,23.8333333 L8.95910747,23.8333333 L8.95910747,31.2583333 C8.95910747,32.0833333 9.64826958,32.7708333 10.4752641,32.7708333 L22.4207407,32.7708333 C23.2477353,32.7708333 23.9368974,32.0833333 23.9368974,31.2583333 L23.9368974,23.8333333 L31.3798482,23.8333333 C32.2068427,23.8333333 32.8960049,23.1458333 32.8960049,22.3208333 L32.8960049,10.4041667 C32.8500607,9.57916667 32.1608986,8.9375 31.3339041,8.9375 L31.3339041,8.9375 Z M31.3798482,21.4958333 C31.3798482,21.9541667 31.0122951,22.3208333 30.5528537,22.3208333 L22.3747966,22.3208333 L22.3747966,30.4333333 C22.3747966,30.8916667 22.0072435,31.2583333 21.5478021,31.2583333 L11.2563145,31.2583333 C10.7968731,31.2583333 10.42932,30.8916667 10.42932,30.4333333 L10.42932,22.3208333 L2.29720704,22.3208333 C1.83776563,22.3208333 1.47021251,21.9541667 1.47021251,21.4958333 L1.47021251,11.275 C1.47021251,10.8166667 1.83776563,10.45 2.29720704,10.45 L10.42932,10.45 L10.42932,2.29166667 C10.42932,1.83333333 10.7968731,1.46666667 11.2563145,1.46666667 L21.5018579,1.46666667 C21.9612993,1.46666667 22.3288525,1.83333333 22.3288525,2.29166667 L22.3288525,10.4041667 L30.4609654,10.4041667 C30.9204068,10.4041667 31.2879599,10.7708333 31.2879599,11.2291667 L31.2879599,21.4958333 L31.3798482,21.4958333 Z" fill="#D42328" />

  <path d="M28.3015908,16.3166667 L25.3152216,14.0708333 L25.774663,15.4916667 L19.0668185,15.0333333 C19.2965392,15.4458333 19.3884274,15.9041667 19.3884274,16.4083333 C19.3884274,16.8666667 19.2965392,17.325 19.1127626,17.6916667 L25.774663,17.1875 L25.3152216,18.6083333 L28.3015908,16.3166667 L28.3015908,16.3166667 Z" fill="#231F20" />

  <path d="M17.9182149,16.2708333 L17.9182149,16.1791667 L17.274997,5.40833333 L18.6992653,5.86666667 L16.4480024,2.8875 L14.1967395,5.86666667 L15.6210079,5.40833333 L15.0237341,16.1791667 C15.0237341,16.1791667 15.0237341,16.1791667 15.0237341,16.225 L15.0237341,16.3166667 L15.0237341,16.3166667 C15.0237341,17.1416667 15.666952,17.7833333 16.4939466,17.7833333 C17.3209411,17.7833333 17.9641591,17.1416667 17.9641591,16.3166667 L17.9641591,16.3166667 L17.9641591,16.3166667 L17.9182149,16.2708333 L17.9182149,16.2708333 Z" fill="#231F20" />
</svg>
