<svg width="141px" height="33px" viewBox="0 0 141 33" version="1.1" xmlns="http://www.w3.org/2000/svg" xmlns:xlink="http://www.w3.org/1999/xlink" xmlns:sketch="http://www.bohemiancoding.com/sketch/ns">
    <!-- Generator: Sketch 3.4.1 (15681) - http://www.bohemiancoding.com/sketch -->
    <title>Slice 1</title>
    <desc>Created with Sketch.</desc>
    <defs>
        <linearGradient x1="21.3205307%" y1="21.3613986%" x2="84.6374302%" y2="84.7668531%" id="linearGradient-1">
            <stop stop-color="#FFFFFF" offset="0%"></stop>
            <stop stop-color="#BFC8D2" offset="100%"></stop>
        </linearGradient>
    </defs>
    <g id="Page-1" stroke="none" stroke-width="1" fill="none" fill-rule="evenodd" sketch:type="MSPage">
        <g id="rt-logo-white-type" sketch:type="MSLayerGroup">
            <g id="XMLID_182_" sketch:type="MSShapeGroup">
                <g id="XMLID_188_" transform="translate(39.511961, 8.708333)" fill="#FFFFFF">
                    <path d="M0,13.7041667 L0,0.183333333 L6.47812386,0.183333333 C7.94833637,0.183333333 8.95910747,0.458333333 9.5563813,1.05416667 C10.1536551,1.65 10.42932,2.6125 10.42932,4.03333333 C10.42932,5.27083333 10.2455434,6.14166667 9.92393443,6.64583333 C9.60232544,7.15 8.95910747,7.47083333 8.08616879,7.60833333 L8.08616879,7.65416667 C9.51043716,7.74583333 10.2455434,8.61666667 10.2455434,10.2666667 L10.2455434,13.75 L8.72938676,13.75 L8.72938676,10.6333333 C8.72938676,9.075 8.04022465,8.25 6.66190043,8.25 L6.15651488,8.25 L1.56210079,8.25 L1.56210079,13.75 L0,13.75 L0,13.7041667 Z M1.56210079,6.92083333 L5.97273831,6.92083333 C7.12134183,6.92083333 7.94833637,6.7375 8.36183364,6.37083333 C8.7753309,6.00416667 9.00505161,5.3625 9.00505161,4.35416667 C9.00505161,3.11666667 8.86721919,2.3375 8.5456102,1.97083333 C8.22400121,1.60416667 7.5348391,1.42083333 6.524068,1.42083333 L1.56210079,1.42083333 L1.56210079,6.92083333 L1.56210079,6.92083333 Z" id="XMLID_211_"></path>
                    <path d="M18.928986,10.8625 L20.3532544,10.8625 L20.3532544,11.2291667 C20.3532544,12.2375 20.0316454,12.925 19.4343716,13.2916667 C18.8370978,13.7041667 17.7803825,13.8875 16.2642259,13.8875 C14.5183485,13.8875 13.369745,13.5666667 12.8184153,12.925 C12.2670856,12.2833333 11.9914208,10.9541667 11.9914208,8.89166667 C11.9914208,7.0125 12.2670856,5.72916667 12.8184153,5.0875 C13.369745,4.44583333 14.4264602,4.125 16.0345052,4.125 C17.7803825,4.125 18.928986,4.4 19.4803157,4.95 C20.0316454,5.5 20.3073103,6.69166667 20.3073103,8.525 L20.3073103,9.25833333 L13.4616333,9.25833333 C13.4616333,10.7708333 13.5994657,11.6875 13.9670188,12.1 C14.2886278,12.5125 15.0237341,12.6958333 16.2182817,12.6958333 C17.3209411,12.6958333 18.0560474,12.6041667 18.4236005,12.4208333 C18.7452095,12.2375 18.928986,11.825 18.928986,11.1375 L18.928986,10.8625 L18.928986,10.8625 Z M18.928986,8.15833333 L18.928986,7.7 C18.928986,6.69166667 18.7452095,6.00416667 18.4236005,5.68333333 C18.1019915,5.3625 17.3668852,5.225 16.2182817,5.225 C15.0696782,5.225 14.3805161,5.40833333 14.012963,5.775 C13.691354,6.14166667 13.5075774,6.92083333 13.5075774,8.15833333 L18.928986,8.15833333 L18.928986,8.15833333 Z" id="XMLID_208_"></path>
                    <path d="M29.6339709,6.69166667 L28.2556466,6.69166667 C28.2556466,6.05 28.1178142,5.6375 27.8421494,5.45416667 C27.5664845,5.31666667 26.8773224,5.225 25.774663,5.225 C24.7179478,5.225 24.0747298,5.31666667 23.799065,5.5 C23.5234001,5.68333333 23.3855677,6.09583333 23.3855677,6.7375 C23.3855677,7.7 23.8450091,8.20416667 24.8098361,8.25 L25.9124954,8.29583333 L27.3367638,8.3875 C29.0826412,8.47916667 29.9096357,9.39583333 29.9096357,11.0916667 C29.9096357,12.1458333 29.6339709,12.8791667 29.036697,13.2916667 C28.4853673,13.7041667 27.4286521,13.8875 25.9124954,13.8875 C24.3503947,13.8875 23.2936794,13.7041667 22.6964056,13.3375 C22.0991318,12.9708333 21.8234669,12.2833333 21.8234669,11.275 L21.8234669,10.7708333 L23.2477353,10.7708333 L23.2477353,11.2291667 C23.2477353,11.8708333 23.3855677,12.2833333 23.7071767,12.4666667 C24.0287857,12.6958333 24.6720036,12.7875 25.5908865,12.7875 C26.73949,12.7875 27.4745962,12.6958333 27.8421494,12.4666667 C28.2097025,12.2375 28.3934791,11.7791667 28.3934791,11.0916667 C28.3934791,10.0833333 27.9340376,9.57916667 27.0151548,9.57916667 C24.9017243,9.57916667 23.5234001,9.39583333 22.834238,9.02916667 C22.1450759,8.6625 21.8234669,7.92916667 21.8234669,6.78333333 C21.8234669,5.72916667 22.0991318,4.99583333 22.6045173,4.675 C23.1099029,4.30833333 24.1666181,4.125 25.774663,4.125 C28.3015908,4.125 29.5420826,4.90416667 29.5420826,6.41666667 L29.5420826,6.69166667 L29.6339709,6.69166667 Z" id="XMLID_206_"></path>
                    <path d="M38.1336369,10.2666667 L39.5119611,10.2666667 L39.5119611,10.7708333 C39.5119611,12.7875 38.1795811,13.7958333 35.5148209,13.7958333 C33.8148877,13.7958333 32.6662842,13.475 32.1149545,12.8333333 C31.5636248,12.1916667 31.2879599,10.8625 31.2879599,8.84583333 C31.2879599,6.96666667 31.5636248,5.68333333 32.1149545,5.04166667 C32.6662842,4.35416667 33.7229994,4.03333333 35.3310443,4.03333333 C36.8931451,4.03333333 37.9498604,4.2625 38.50119,4.72083333 C39.0525197,5.17916667 39.3281846,6.00416667 39.3281846,7.2875 L37.9498604,7.2875 L37.9498604,7.05833333 C37.9498604,6.325 37.7660838,5.82083333 37.3985307,5.59166667 C37.0309775,5.3625 36.2958713,5.225 35.239156,5.225 C34.1824408,5.225 33.5392228,5.45416667 33.2176138,5.9125 C32.941949,6.37083333 32.7581724,7.425 32.7581724,9.02916667 C32.7581724,10.5875 32.941949,11.5958333 33.263558,12.0541667 C33.585167,12.4666667 34.4121615,12.6958333 35.6526533,12.6958333 C36.7093685,12.6958333 37.3985307,12.5583333 37.6741955,12.2833333 C37.9958045,12.0083333 38.1336369,11.3208333 38.1336369,10.2666667 L38.1336369,10.2666667 Z" id="XMLID_204_"></path>
                    <path d="M48.93051,4.21666667 L48.93051,13.7041667 L47.5521858,13.7041667 L47.6440741,12.4666667 L47.5981299,12.4208333 C47.0927444,13.3833333 46.0819733,13.8416667 44.4739284,13.8416667 C42.2686096,13.8416667 41.1200061,12.7416667 41.1200061,10.5416667 L41.1200061,4.21666667 L42.4983303,4.21666667 L42.4983303,10.5416667 C42.4983303,11.4125 42.6361627,11.9625 42.9118276,12.2833333 C43.1874924,12.5583333 43.7388221,12.7416667 44.6117608,12.7416667 C45.7144202,12.7416667 46.4495264,12.5125 46.8630237,12.1 C47.2765209,11.6875 47.4602975,10.8625 47.4602975,9.71666667 L47.4602975,4.21666667 L48.93051,4.21666667 L48.93051,4.21666667 Z" id="XMLID_202_"></path>
                    <path d="M57.8436733,10.8625 L59.2679417,10.8625 L59.2679417,11.2291667 C59.2679417,12.2375 58.9463327,12.925 58.3490589,13.2916667 C57.7517851,13.7041667 56.6950698,13.8875 55.1789132,13.8875 C53.4330358,13.8875 52.2844323,13.5666667 51.7331026,12.925 C51.1817729,12.2833333 50.9061081,10.9541667 50.9061081,8.89166667 C50.9061081,7.0125 51.1817729,5.72916667 51.7331026,5.0875 C52.2844323,4.44583333 53.3411475,4.125 54.9491925,4.125 C56.6950698,4.125 57.8436733,4.4 58.395003,4.95 C58.9463327,5.5 59.2219976,6.69166667 59.2219976,8.525 L59.2219976,9.25833333 L52.3763206,9.25833333 C52.3763206,10.7708333 52.514153,11.6875 52.835762,12.1 C53.157371,12.5125 53.8924772,12.6958333 55.0870249,12.6958333 C56.1896843,12.6958333 56.9247905,12.6041667 57.2923437,12.4208333 C57.6139526,12.2375 57.7977292,11.825 57.7977292,11.1375 L57.7977292,10.8625 L57.8436733,10.8625 Z M57.8436733,8.15833333 L57.8436733,7.7 C57.8436733,6.69166667 57.6598968,6.00416667 57.3382878,5.68333333 C57.0166788,5.3625 56.2815726,5.225 55.132969,5.225 C53.9843655,5.225 53.2952034,5.40833333 52.9276503,5.775 C52.6060413,6.14166667 52.4222647,6.92083333 52.4222647,8.15833333 L57.8436733,8.15833333 L57.8436733,8.15833333 Z" id="XMLID_199_"></path>
                    <path d="M66.527116,2.475 L66.527116,13.7041667 L63.9542441,13.7041667 L63.9542441,2.475 L60.0489921,2.475 L60.0489921,0.183333333 L70.6161445,0.183333333 L70.6161445,2.475 L66.527116,2.475 L66.527116,2.475 Z" id="XMLID_197_"></path>
                    <path d="M73.7862902,0.183333333 L73.7862902,2.0625 L71.4890832,2.0625 L71.4890832,0.183333333 L73.7862902,0.183333333 L73.7862902,0.183333333 Z M73.7862902,4.21666667 L73.7862902,13.7041667 L71.4890832,13.7041667 L71.4890832,4.21666667 L73.7862902,4.21666667 L73.7862902,4.21666667 Z" id="XMLID_194_"></path>
                    <path d="M75.7159441,4.21666667 L78.0131512,4.21666667 L77.967207,5.68333333 L78.0131512,5.68333333 C78.4725926,4.62916667 79.4374196,4.125 80.9076321,4.125 C82.6075653,4.125 83.5723922,4.72083333 83.7561688,5.86666667 L83.8021129,5.86666667 C84.2615543,4.675 85.2263813,4.125 86.7425379,4.125 C88.9478567,4.125 90.0505161,5.225 90.0505161,7.425 L90.0505161,13.7041667 L87.753309,13.7041667 L87.753309,7.92916667 C87.753309,6.6 87.2019794,5.9125 86.09932,5.9125 C84.7209957,5.9125 84.0318336,6.64583333 84.0318336,8.15833333 L84.0318336,13.7041667 L81.7346266,13.7041667 L81.7346266,7.8375 C81.7346266,7.05833333 81.6427383,6.55416667 81.4130176,6.27916667 C81.1832969,6.05 80.7697996,5.9125 80.0806375,5.9125 C78.7023133,5.9125 77.967207,6.69166667 77.967207,8.20416667 L77.967207,13.7041667 L75.67,13.7041667 L75.67,4.21666667 L75.7159441,4.21666667 Z" id="XMLID_192_"></path>
                    <path d="M98.182629,10.6791667 L100.479836,10.6791667 L100.479836,11.0458333 C100.479836,12.8791667 99.1015118,13.8416667 96.2989192,13.8416667 C94.4152095,13.8416667 93.1747177,13.5208333 92.5774438,12.8791667 C91.98017,12.2375 91.7045052,10.8625 91.7045052,8.8 C91.7045052,6.96666667 92.0261141,5.72916667 92.623388,5.0875 C93.2206618,4.44583333 94.4152095,4.125 96.207031,4.125 C97.9069642,4.125 99.0555677,4.44583333 99.6068974,5.04166667 C100.204171,5.6375 100.479836,6.875 100.479836,8.70833333 L100.479836,9.39583333 L94.0476563,9.39583333 L94.0476563,9.80833333 C94.0476563,10.725 94.1854888,11.3666667 94.4611536,11.6875 C94.7368185,12.0083333 95.3340923,12.1458333 96.207031,12.1458333 C97.0340255,12.1458333 97.5853552,12.0541667 97.86102,11.8708333 C98.0447966,11.6875 98.182629,11.275 98.182629,10.6791667 L98.182629,10.6791667 Z M98.182629,7.975 L98.182629,7.60833333 C98.182629,6.875 98.0447966,6.37083333 97.7691318,6.14166667 C97.4934669,5.9125 96.9421372,5.82083333 96.0691985,5.82083333 C95.242204,5.82083333 94.6908743,5.95833333 94.4152095,6.23333333 C94.1395446,6.50833333 94.0476563,7.10416667 94.0476563,8.02083333 L98.182629,8.02083333 L98.182629,7.975 Z" id="XMLID_189_"></path>
                </g>
                <g id="XMLID_181_">
                    <path d="M31.3339041,8.9375 L23.8909532,8.9375 L23.8909532,1.5125 C23.8909532,0.6875 23.2477353,0 22.4207407,0 L10.4752641,0 C9.64826958,0 8.95910747,0.6875 8.95910747,1.5125 L8.95910747,8.9375 L1.51615665,8.9375 C0.689162113,8.9375 0,9.625 0,10.45 L0,22.3666667 C0,23.1916667 0.689162113,23.8333333 1.51615665,23.8333333 L8.95910747,23.8333333 L8.95910747,31.2583333 C8.95910747,32.0833333 9.64826958,32.7708333 10.4752641,32.7708333 L22.4207407,32.7708333 C23.2477353,32.7708333 23.9368974,32.0833333 23.9368974,31.2583333 L23.9368974,23.8333333 L31.3798482,23.8333333 C32.2068427,23.8333333 32.8960049,23.1458333 32.8960049,22.3208333 L32.8960049,10.4041667 C32.8500607,9.57916667 32.1608986,8.9375 31.3339041,8.9375 L31.3339041,8.9375 Z" id="XMLID_164_" fill="url(#linearGradient-1)"></path>
                    <path d="M31.3339041,8.9375 L23.8909532,8.9375 L23.8909532,1.5125 C23.8909532,0.6875 23.2477353,0 22.4207407,0 L10.4752641,0 C9.64826958,0 8.95910747,0.6875 8.95910747,1.5125 L8.95910747,8.9375 L1.51615665,8.9375 C0.689162113,8.9375 0,9.625 0,10.45 L0,22.3666667 C0,23.1916667 0.689162113,23.8333333 1.51615665,23.8333333 L8.95910747,23.8333333 L8.95910747,31.2583333 C8.95910747,32.0833333 9.64826958,32.7708333 10.4752641,32.7708333 L22.4207407,32.7708333 C23.2477353,32.7708333 23.9368974,32.0833333 23.9368974,31.2583333 L23.9368974,23.8333333 L31.3798482,23.8333333 C32.2068427,23.8333333 32.8960049,23.1458333 32.8960049,22.3208333 L32.8960049,10.4041667 C32.8500607,9.57916667 32.1608986,8.9375 31.3339041,8.9375 L31.3339041,8.9375 Z M31.3798482,21.4958333 C31.3798482,21.9541667 31.0122951,22.3208333 30.5528537,22.3208333 L22.3747966,22.3208333 L22.3747966,30.4333333 C22.3747966,30.8916667 22.0072435,31.2583333 21.5478021,31.2583333 L11.2563145,31.2583333 C10.7968731,31.2583333 10.42932,30.8916667 10.42932,30.4333333 L10.42932,22.3208333 L2.29720704,22.3208333 C1.83776563,22.3208333 1.47021251,21.9541667 1.47021251,21.4958333 L1.47021251,11.275 C1.47021251,10.8166667 1.83776563,10.45 2.29720704,10.45 L10.42932,10.45 L10.42932,2.29166667 C10.42932,1.83333333 10.7968731,1.46666667 11.2563145,1.46666667 L21.5018579,1.46666667 C21.9612993,1.46666667 22.3288525,1.83333333 22.3288525,2.29166667 L22.3288525,10.4041667 L30.4609654,10.4041667 C30.9204068,10.4041667 31.2879599,10.7708333 31.2879599,11.2291667 L31.2879599,21.4958333 L31.3798482,21.4958333 Z" id="XMLID_184_" fill="#D42328"></path>
                    <path d="M28.3015908,16.3166667 L25.3152216,14.0708333 L25.774663,15.4916667 L19.0668185,15.0333333 C19.2965392,15.4458333 19.3884274,15.9041667 19.3884274,16.4083333 C19.3884274,16.8666667 19.2965392,17.325 19.1127626,17.6916667 L25.774663,17.1875 L25.3152216,18.6083333 L28.3015908,16.3166667 L28.3015908,16.3166667 Z" id="XMLID_161_" fill="#231F20"></path>
                    <path d="M17.9182149,16.2708333 L17.9182149,16.1791667 L17.274997,5.40833333 L18.6992653,5.86666667 L16.4480024,2.8875 L14.1967395,5.86666667 L15.6210079,5.40833333 L15.0237341,16.1791667 C15.0237341,16.1791667 15.0237341,16.1791667 15.0237341,16.225 L15.0237341,16.3166667 L15.0237341,16.3166667 C15.0237341,17.1416667 15.666952,17.7833333 16.4939466,17.7833333 C17.3209411,17.7833333 17.9641591,17.1416667 17.9641591,16.3166667 L17.9641591,16.3166667 L17.9641591,16.3166667 L17.9182149,16.2708333 L17.9182149,16.2708333 Z" id="XMLID_159_" fill="#231F20"></path>
                </g>
            </g>
        </g>
    </g>
</svg>
